# xmcd
#
# Track frame offsets:
#	150
#	13592
#	25680
#	39020
#	57835
#	73280
#	91370
#	110937
#	127360
#	138627
#	150907
#	165532
#	176142
#	190180
#	205752
#
# Disc length: 2953 seconds
#
# Revision: 0
# Processed by: cddbd v1.4PL0 Copyright (c) Steve Scherf et al.
# Submitted via: dBpowerAMP V4.0
#
DISCID=d00b870f
DTITLE=Dave Ray and Tony Glover - Ashes In My Whiskey
DYEAR=1990
DGENRE=Blues
TTITLE0=Uncertain Blues
TTITLE1=Stuff You Sell
TTITLE2=If You Haven't Any Hay
TTITLE3=Staring At The Ceiling
TTITLE4=In The Jailhouse Now
TTITLE5=Devil Got My Woman
TTITLE6=HIV Blues
TTITLE7=Mean Old Lonesome Train
TTITLE8=I'm Through With Love
TTITLE9=Gravel Road
TTITLE10=Elegy #2
TTITLE11=Ashes In My Whiskey
TTITLE12=Catfish Blues
TTITLE13=I Been Watching You
TTITLE14=Mattie Mae
EXTD=
EXTT0=
EXTT1=
EXTT2=
EXTT3=
EXTT4=
EXTT5=
EXTT6=
EXTT7=
EXTT8=
EXTT9=
EXTT10=
EXTT11=
EXTT12=
EXTT13=
EXTT14=
PLAYORDER=
